<?xml version="1.0" encoding="iso-8859-1"?>
<!-- Generator: Adobe Illustrator 17.1.0, SVG Export Plug-In . SVG Version: 6.00 Build 0)  -->
<!DOCTYPE svg PUBLIC "-//W3C//DTD SVG 1.1//EN" "http://www.w3.org/Graphics/SVG/1.1/DTD/svg11.dtd">
<svg xmlns="http://www.w3.org/2000/svg" xmlns:xlink="http://www.w3.org/1999/xlink" version="1.1" id="Capa_1" x="0px" y="0px" viewBox="0 0 406.836 406.836" style="enable-background:new 0 0 406.836 406.836;" xml:space="preserve" width="512px" height="512px">
<path d="M144.722,216.526h242.11v-15.123c0-5.522,4.478-10,10-10s10,4.478,10,10v25.123c0,5.522-4.478,10-10,10h-252.11  c-5.522,0-10-4.478-10-10S139.199,216.526,144.722,216.526z M406.836,370.688c0,5.522-4.478,10-10,10H10.002  c-5.522,0-10-4.478-10-10s4.478-10,10-10h38.349V276.15H10c-5.522,0-10-4.478-10-10c0-0.067,0.001-0.135,0.002-0.201V84.494  c0-32.173,26.174-58.347,58.347-58.347h34.124c36.635,0,67.017,27.276,71.901,62.589h39.041c5.522,0,10,4.478,10,10s-4.478,10-10,10  h-96.706c-5.522,0-10-4.478-10-10s4.478-10,10-10h37.397c-4.683-24.233-26.055-42.589-51.634-42.589H58.349  c-21.145,0-38.347,17.202-38.347,38.347V256.15h328.28c0.133-0.002,0.27-0.002,0.402,0h48.151c5.522,0,10,4.478,10,10  s-4.478,10-10,10h-38.353v84.538h38.353C402.358,360.688,406.836,365.166,406.836,370.688z M338.483,276.15H68.351v84.538h270.133  V276.15z M82.109,148.846c24.175,0,43.842,19.667,43.842,43.842c0,24.174-19.667,43.841-43.842,43.841  c-24.174,0-43.841-19.667-43.841-43.841C38.269,168.513,57.936,148.846,82.109,148.846z M82.109,168.846  c-13.146,0-23.841,10.695-23.841,23.842c0,13.146,10.695,23.841,23.841,23.841c13.146,0,23.842-10.695,23.842-23.841  C105.951,179.541,95.256,168.846,82.109,168.846z" fill="#FFFFFF"/>
<g>
</g>
<g>
</g>
<g>
</g>
<g>
</g>
<g>
</g>
<g>
</g>
<g>
</g>
<g>
</g>
<g>
</g>
<g>
</g>
<g>
</g>
<g>
</g>
<g>
</g>
<g>
</g>
<g>
</g>
</svg>
