<?xml version="1.0" encoding="iso-8859-1"?>
<!-- Generator: Adobe Illustrator 19.0.0, SVG Export Plug-In . SVG Version: 6.00 Build 0)  -->
<svg xmlns="http://www.w3.org/2000/svg" xmlns:xlink="http://www.w3.org/1999/xlink" version="1.1" id="Layer_1" x="0px" y="0px" viewBox="0 0 512 512" style="enable-background:new 0 0 512 512;" xml:space="preserve" width="512px" height="512px">
<g>
	<g>
		<path d="M288,196.692V154.02h-64v42.672h-42.656v64H224v42.672h64v-42.672h42.672v-64H288z M309.344,239.356H288h-21.328v21.336    v21.328h-21.328v-21.328v-21.336H224h-21.328V218.02H224h21.344v-21.328v-21.336h21.328v21.336v21.328H288h21.344V239.356z" fill="#FFFFFF"/>
	</g>
</g>
<g>
	<g>
		<path d="M256.797,101.98C150.625,101.98,56.781,154.715,0,235.41l104.141,174.61c38.141-40.766,92.422-66.25,152.656-66.25    c59.297,0,112.828,24.688,150.875,64.359L512,233.184C455.078,153.746,361.984,101.98,256.797,101.98z M402.828,374.613    c-16.391-13.469-34.5-24.562-54.109-33.094c-29.062-12.656-59.984-19.094-91.922-19.094c-32.453,0-63.828,6.625-93.266,19.688    c-19.875,8.812-38.203,20.234-54.719,34.109L25.594,236.676C51,203.949,83.375,176.66,119.875,157.277    c20.656-10.961,42.578-19.406,65.203-25.109c23.312-5.875,47.438-8.859,71.719-8.859c24.047,0,47.969,2.93,71.078,8.695    c22.422,5.602,44.203,13.906,64.703,24.672c36.172,19,68.344,45.773,93.766,77.891L402.828,374.613z" fill="#FFFFFF"/>
	</g>
</g>
<g>
</g>
<g>
</g>
<g>
</g>
<g>
</g>
<g>
</g>
<g>
</g>
<g>
</g>
<g>
</g>
<g>
</g>
<g>
</g>
<g>
</g>
<g>
</g>
<g>
</g>
<g>
</g>
<g>
</g>
</svg>
